<?xml version="1.0" encoding="utf-8"?>
<!-- Generator: Adobe Illustrator 16.0.0, SVG Export Plug-In . SVG Version: 6.00 Build 0)  -->
<!DOCTYPE svg PUBLIC "-//W3C//DTD SVG 1.1//EN" "http://www.w3.org/Graphics/SVG/1.1/DTD/svg11.dtd">
<svg version="1.1" id="Layer_1" xmlns="http://www.w3.org/2000/svg" xmlns:xlink="http://www.w3.org/1999/xlink" x="0px" y="0px"
	 width="766.667px" height="112px" viewBox="0 0 766.667 112" enable-background="new 0 0 766.667 112" xml:space="preserve">
<g>
	<path d="M13.161,81.284l-0.406-6.764l0.406-7.035v-2.029c0.044-0.225,0.112-0.495,0.203-0.812c0.09-0.314,0.135-0.585,0.135-0.812
		c0-1.308-0.203-2.648-0.608-4.024c-0.406-1.375-0.722-2.716-0.947-4.024c-0.451-0.315-1.094-0.541-1.928-0.677
		C9.18,54.972,8.358,54.803,7.546,54.6s-1.522-0.508-2.13-0.913c-0.609-0.406-0.914-1.037-0.914-1.895
		c0-0.946,0.315-1.657,0.947-2.13c0.631-0.474,1.387-0.88,2.266-1.218c0.879-0.339,1.781-0.643,2.706-0.913
		c0.924-0.271,1.68-0.677,2.266-1.218c0.585-0.496,1.24-1.104,1.961-1.826c0.721-0.721,1.24-1.285,1.556-1.691
		c0.36-0.721,0.846-1.623,1.455-2.705c0.608-1.082,1.273-2.131,1.995-3.146c0.721-1.015,1.488-1.894,2.3-2.638
		s1.624-1.116,2.435-1.116c0.541,0,0.981,0.146,1.319,0.439c0.338,0.294,0.609,0.654,0.812,1.082c0.203,0.43,0.349,0.892,0.44,1.387
		c0.09,0.497,0.157,0.971,0.203,1.421v7.846L27.5,45.84h3.179c1.126,0,2.165-0.078,3.111-0.236c0.947-0.157,1.837-0.339,2.672-0.541
		c0.833-0.203,1.646-0.383,2.435-0.541c0.788-0.158,1.634-0.237,2.536-0.237c1.262,0,2.322,0.474,3.179,1.421
		c0.856,0.946,1.285,2.074,1.285,3.382c0,1.038-0.169,1.894-0.507,2.57c-0.338,0.676-0.823,1.218-1.454,1.623
		c-0.632,0.406-1.376,0.688-2.232,0.846c-0.857,0.158-1.804,0.236-2.841,0.236l-4.464-0.338l-3.382,0.338l-3.247-0.338
		c-0.632,0-1.207,0.282-1.725,0.846c-0.519,0.564-0.778,1.094-0.778,1.589l0.608,5.073c0,0.632-0.091,1.241-0.271,1.826
		c-0.181,0.587-0.383,1.184-0.608,1.793c-0.227,0.608-0.429,1.229-0.609,1.859c-0.181,0.633-0.271,1.285-0.271,1.962v1.218
		l0.609,7.846c-0.135,0.271-0.215,0.541-0.237,0.812c-0.023,0.271-0.034,0.609-0.034,1.015c0,0.316,0.044,0.609,0.136,0.88
		c0.089,0.271,0.135,0.519,0.135,0.744c0.135,1.308,0.203,2.593,0.203,3.855c0,1.127-0.045,2.21-0.135,3.246
		c-0.091,1.038-0.226,2.075-0.406,3.111c0.044,0.046,0.135,0.169,0.271,0.372s0.281,0.43,0.439,0.677
		c0.158,0.248,0.305,0.497,0.44,0.744c0.135,0.248,0.247,0.396,0.338,0.439c0.361,0.541,0.767,0.947,1.218,1.218
		c0.45,0.271,0.913,0.507,1.387,0.71c0.473,0.203,0.969,0.417,1.488,0.643c0.518,0.227,1.025,0.564,1.522,1.015h2.57
		c1.037,0,2.029-0.112,2.976-0.338c0.947-0.226,1.86-0.462,2.739-0.711c0.879-0.247,1.736-0.483,2.57-0.71
		c0.834-0.225,1.702-0.338,2.604-0.338c0.541,0,0.947,0.271,1.217,0.812s0.406,1.06,0.406,1.556c0,0.271-0.012,0.485-0.034,0.643
		c-0.023,0.158-0.079,0.305-0.169,0.439c-0.091,0.136-0.215,0.294-0.372,0.474c-0.159,0.181-0.35,0.429-0.575,0.744l-0.947,1.353
		c-0.135,0.091-0.35,0.316-0.643,0.677c-0.294,0.361-0.621,0.756-0.981,1.184c-0.361,0.429-0.722,0.835-1.082,1.218
		c-0.361,0.383-0.632,0.665-0.812,0.845c-0.452,0.497-1.128,0.971-2.029,1.421c-0.903,0.451-1.85,0.846-2.841,1.184
		c-0.993,0.338-1.951,0.597-2.875,0.778c-0.925,0.18-1.657,0.271-2.199,0.271l-8.658-1.759c-0.767-0.226-1.623-0.563-2.57-1.015
		c-0.947-0.45-1.86-0.981-2.739-1.59s-1.646-1.296-2.3-2.063c-0.654-0.767-1.072-1.601-1.251-2.503V95.42
		c-0.226-1.532-0.485-2.987-0.778-4.363c-0.293-1.375-0.439-2.807-0.439-4.295L13.161,81.284z"/>
	<path d="M53.879,77.631c0-0.226,0.044-0.665,0.135-1.319c0.09-0.653,0.191-1.353,0.304-2.097c0.112-0.744,0.203-1.454,0.271-2.131
		c0.068-0.676,0.102-1.127,0.102-1.353c0.18-2.165,0.665-4.373,1.454-6.629c0.789-2.254,1.792-4.431,3.01-6.527
		c1.217-2.097,2.626-4.024,4.227-5.783c1.6-1.759,3.348-3.246,5.242-4.464c0.044-0.09,0.281-0.247,0.71-0.474
		c0.428-0.225,0.89-0.45,1.386-0.676c0.496-0.226,0.969-0.451,1.421-0.677c0.45-0.226,0.721-0.383,0.812-0.474
		c0.315-0.135,0.732-0.372,1.251-0.71c0.518-0.339,1.048-0.677,1.589-1.015s1.082-0.643,1.623-0.913
		c0.542-0.271,1.037-0.406,1.488-0.406c0.406,0,0.732,0.046,0.981,0.136c0.247,0.091,0.552,0.226,0.913,0.405
		c0.766-0.09,1.499-0.169,2.198-0.236c0.699-0.067,1.409-0.102,2.13-0.102c0.767,0,1.488,0.034,2.165,0.102s1.397,0.146,2.165,0.236
		c0.36,0.136,0.653,0.249,0.879,0.339c0.225,0.091,0.45,0.181,0.676,0.271c0.225,0.091,0.406,0.158,0.541,0.202
		c0.135,0.046,0.406,0.17,0.812,0.372c0.406,0.203,0.856,0.44,1.353,0.711c0.496,0.271,0.969,0.507,1.42,0.71
		c0.45,0.203,0.766,0.327,0.947,0.372c0,0.045,0.157,0.113,0.473,0.203c0.315,0.091,0.518,0.135,0.609,0.135l2.706,1.488
		l6.087,5.547c0.18,0.226,0.462,0.823,0.846,1.792c0.382,0.97,0.766,2.029,1.15,3.179c0.382,1.15,0.721,2.244,1.015,3.281
		c0.292,1.037,0.439,1.714,0.439,2.028c0,0.633-0.181,1.14-0.541,1.522c-0.361,0.384-0.79,0.699-1.285,0.947
		c-0.497,0.248-1.026,0.429-1.589,0.541c-0.564,0.112-1.049,0.192-1.455,0.236h-0.271c-0.451,0.046-1.184,0.091-2.198,0.136
		s-2.075,0.079-3.179,0.101c-1.105,0.023-2.142,0.046-3.111,0.068c-0.97,0.023-1.635,0.033-1.995,0.033
		c-0.497,0.227-0.937,0.361-1.319,0.406c-0.383,0.045-0.778,0.067-1.184,0.067l-4.802-0.474c-0.903,0-1.838,0.159-2.807,0.474
		c-0.97,0.316-1.905,0.474-2.807,0.474c-0.586,0-1.161-0.214-1.725-0.643c-0.564-0.428-1.184-0.643-1.86-0.643
		c-0.091,0-0.328,0.102-0.71,0.305c-0.384,0.203-0.666,0.304-0.846,0.304l-5.141-0.338c-0.722,0-1.398,0.136-2.029,0.406
		c-0.632,0.271-1.353,0.744-2.165,1.42c-0.135,1.173-0.226,2.198-0.271,3.078c-0.045,0.879-0.068,1.859-0.068,2.942
		c0,0.946,0.056,1.714,0.169,2.3c0.112,0.586,0.281,1.139,0.507,1.656c0.225,0.52,0.496,1.038,0.812,1.557
		c0.315,0.519,0.676,1.161,1.082,1.927l0.676,1.285c1.172,2.57,2.683,4.646,4.532,6.224c1.848,1.579,4.238,2.818,7.169,3.72
		c0,0.227,0.327,0.439,0.981,0.643c0.653,0.203,1.387,0.35,2.198,0.439c0.947,0.181,2.029,0.294,3.247,0.339
		c1.488,0,3.021-0.09,4.6-0.271c1.578-0.18,3.111-0.474,4.6-0.88c1.488-0.405,2.897-0.947,4.228-1.623
		c1.329-0.677,2.469-1.511,3.416-2.503h1.083c0.541,0,0.913,0.079,1.116,0.237c0.203,0.158,0.417,0.598,0.643,1.318
		c-0.135,1.309-0.328,2.469-0.575,3.483c-0.249,1.015-0.587,1.928-1.015,2.739c-0.429,0.812-0.981,1.567-1.657,2.267
		s-1.556,1.409-2.638,2.13c-0.361,0.271-0.699,0.463-1.014,0.575c-0.316,0.113-0.609,0.215-0.879,0.305
		c-0.271,0.091-0.553,0.226-0.846,0.405c-0.294,0.181-0.62,0.497-0.98,0.947l-7.238,3.652l-0.812-0.135l-5.073,0.812
		c-3.788,0-7.193-0.541-10.214-1.623c-3.021-1.083-5.715-2.627-8.083-4.634c-2.367-2.006-4.419-4.407-6.155-7.203
		c-1.737-2.796-3.213-5.885-4.431-9.267c-0.406-1.218-0.654-2.469-0.744-3.754C54.667,80.303,54.375,78.984,53.879,77.631z
		 M67.204,59.166c0,0.227,0.034,0.564,0.102,1.015c0.067,0.451,0.169,0.902,0.304,1.353c0.135,0.451,0.293,0.857,0.474,1.218
		c0.18,0.361,0.36,0.564,0.541,0.608h2.097l8.996-1.42l5.75,0.474c0.991,0,1.882-0.09,2.672-0.271
		c0.788-0.18,1.657-0.383,2.604-0.609c0.856-0.135,1.589-0.259,2.198-0.372c0.609-0.112,1.104-0.326,1.488-0.643
		c0.382-0.314,0.665-0.732,0.845-1.251c0.18-0.518,0.271-1.252,0.271-2.198c0-1.578-0.429-2.953-1.285-4.126
		c-0.857-1.172-1.928-2.153-3.213-2.942c-1.285-0.788-2.683-1.375-4.193-1.759c-1.511-0.383-2.92-0.575-4.228-0.575
		c-0.316,0-0.767,0.079-1.353,0.237c-0.586,0.158-1.251,0.361-1.995,0.608c-0.744,0.248-1.511,0.519-2.3,0.812
		c-0.79,0.294-1.511,0.609-2.165,0.947c-0.654,0.338-1.229,0.654-1.725,0.947c-0.497,0.293-0.812,0.553-0.947,0.777l-1.421,3.044
		c-0.271,0.316-0.608,0.608-1.014,0.879c-0.406,0.271-0.801,0.564-1.184,0.88c-0.383,0.315-0.699,0.666-0.947,1.048
		C67.328,58.23,67.204,58.669,67.204,59.166z"/>
	<path d="M117.257,103.131c0-0.36,0.237-0.619,0.71-0.778c0.473-0.157,0.822-0.349,1.048-0.575c0.496-0.541,1.07-0.923,1.725-1.149
		c0.653-0.226,1.116-0.406,1.387-0.541c0.36-0.226,0.609-0.508,0.744-0.846s0.45-0.597,0.947-0.777l1.624-0.542
		c0.271,0,0.496-0.202,0.676-0.608c0.18-0.405,0.292-0.631,0.338-0.676c-0.046-0.226-0.068-0.609-0.068-1.15s0-1.059,0-1.556
		c0-0.631,0-1.206,0-1.725s0.022-0.958,0.068-1.319l0.406-2.029V78.443c0-0.09,0.022-0.293,0.067-0.609
		c0.044-0.314,0.09-0.652,0.135-1.014c0.044-0.361,0.09-0.699,0.135-1.015c0.044-0.315,0.09-0.519,0.135-0.609v-0.474
		c-0.045-0.271-0.091-0.687-0.135-1.251c-0.045-0.563-0.091-1.127-0.135-1.691c-0.045-0.563-0.091-1.07-0.135-1.521
		c-0.045-0.45-0.067-0.721-0.067-0.812c-0.045-0.136-0.091-0.36-0.135-0.677c-0.045-0.314-0.091-0.653-0.135-1.015
		c-0.046-0.36-0.08-0.698-0.102-1.015c-0.023-0.314-0.034-0.541-0.034-0.676c-0.136-0.631-0.362-1.24-0.677-1.826
		c-0.316-0.586-0.676-1.139-1.082-1.657s-0.835-1.037-1.285-1.556c-0.451-0.519-0.879-1.025-1.285-1.522
		c-0.045,0-0.203-0.169-0.474-0.507c-0.271-0.339-0.406-0.552-0.406-0.643l-3.991-3.721l3.247-3.314
		c0.09-0.044,0.281-0.135,0.575-0.271c0.292-0.135,0.608-0.28,0.947-0.439c0.338-0.157,0.676-0.304,1.015-0.439
		s0.597-0.226,0.778-0.271c0.09-0.09,0.281-0.169,0.575-0.236c0.293-0.068,0.609-0.124,0.947-0.17
		c0.338-0.044,0.653-0.078,0.947-0.102c0.293-0.021,0.484-0.033,0.575-0.033c0.856-0.271,1.634-0.643,2.333-1.116
		c0.699-0.474,1.387-0.947,2.063-1.421c0.676-0.473,1.363-0.89,2.063-1.251c0.699-0.36,1.499-0.541,2.401-0.541h1.082
		c0.044,0.046,0.292,0.282,0.744,0.71c0.45,0.43,0.788,0.733,1.015,0.913c0.315,0.497,0.473,1.116,0.473,1.86
		s0.022,1.466,0.068,2.164c0.044,0.7,0.203,1.297,0.473,1.793c0.271,0.497,0.856,0.744,1.759,0.744c0.135,0,0.281,0,0.44,0
		c0.157,0,0.236-0.045,0.236-0.136c0.18-0.044,0.428-0.146,0.744-0.304c0.315-0.158,0.643-0.35,0.981-0.575
		c0.338-0.226,0.653-0.45,0.947-0.677c0.293-0.225,0.507-0.405,0.643-0.541l2.773-2.097c0.09-0.09,0.382-0.305,0.879-0.643
		c0.496-0.338,0.834-0.597,1.015-0.778c0.044,0,0.225-0.01,0.542-0.033c0.315-0.022,0.643-0.045,0.98-0.067
		c0.338-0.022,0.665-0.057,0.981-0.102c0.315-0.045,0.541-0.09,0.676-0.136c0.044,0,0.191-0.044,0.439-0.135
		c0.248-0.09,0.518-0.18,0.812-0.271c0.292-0.09,0.552-0.18,0.778-0.271c0.225-0.09,0.36-0.136,0.406-0.136h0.744
		c1.037,0,1.882,0.316,2.536,0.947c0.653,0.632,1.251,1.33,1.792,2.097c0.315,0.405,0.507,0.98,0.575,1.725
		c0.067,0.744,0.213,1.297,0.439,1.657c0,0.136,0.068,0.271,0.203,0.406l0.271,0.271c0,2.164-0.304,4.092-0.913,5.783
		c-0.609,1.69-1.635,3.055-3.078,4.092c-0.406,0.091-0.879,0.169-1.42,0.236c-0.541,0.068-0.993,0.102-1.353,0.102
		c-0.947,0-1.646-0.056-2.097-0.169c-0.451-0.112-0.79-0.281-1.015-0.507c-0.226-0.226-0.417-0.519-0.575-0.88
		c-0.159-0.36-0.417-0.788-0.778-1.285c-0.316-0.405-0.688-0.732-1.116-0.98c-0.429-0.247-0.846-0.428-1.251-0.541
		c-0.406-0.112-0.778-0.191-1.116-0.237c-0.338-0.044-0.553-0.067-0.643-0.067l-2.909-0.474l-2.435,0.677l-0.812,1.082
		c-0.226,0.046-0.541,0.26-0.947,0.643c-0.406,0.384-0.801,0.812-1.184,1.285c-0.383,0.474-0.71,0.971-0.98,1.488
		c-0.271,0.519-0.406,0.937-0.406,1.251l-0.338,4.87l0.338,1.895v3.517c0,0.091,0.034,0.35,0.101,0.778
		c0.068,0.429,0.146,0.756,0.237,0.98l-0.474,6.088l0.474,2.3c0,0.315-0.079,0.632-0.237,0.946
		c-0.158,0.316-0.237,0.722-0.237,1.218l0.474,2.3l-0.474,2.503c0,0.045,0,0.112,0,0.202c0,0.092,0.044,0.136,0.136,0.136
		c0.044,0.271,0.191,0.654,0.439,1.149c0.247,0.497,0.518,1.015,0.812,1.557c0.293,0.541,0.563,1.048,0.812,1.521
		c0.247,0.474,0.416,0.823,0.507,1.048c0,0.046,0.044,0.136,0.135,0.271c0.09,0.135,0.203,0.202,0.338,0.202
		c0.406,0.227,0.8,0.52,1.184,0.88c0.383,0.361,0.846,0.632,1.387,0.812c0.315,0.135,0.721,0.26,1.218,0.372
		c0.496,0.113,1.025,0.236,1.589,0.372c0.563,0.135,1.126,0.294,1.691,0.474c0.563,0.181,1.093,0.405,1.589,0.676
		c0.271,0.361,0.53,0.79,0.778,1.285c0.248,0.497,0.372,1.038,0.372,1.624c0,0.496-0.079,0.856-0.236,1.082
		c-0.159,0.226-0.396,0.451-0.71,0.676c-0.271,0.181-0.722,0.271-1.353,0.271l-2.165,0.203c-0.768,0.091-1.455,0.136-2.063,0.136
		c-0.609,0-1.116,0-1.522,0c-0.361,0-0.756-0.057-1.184-0.169c-0.429-0.112-0.891-0.17-1.387-0.17c-1.263,0-2.458,0.17-3.585,0.508
		c-1.127,0.338-2.277,0.507-3.45,0.507l-3.043-1.015l-4.329,1.015h-1.15l-0.947-0.676c-0.091,0-0.338-0.034-0.744-0.102
		s-0.993-0.146-1.759-0.237c-0.181,0-0.361-0.09-0.541-0.271c-0.135-0.044-0.35-0.111-0.643-0.202
		c-0.294-0.09-0.756-0.293-1.387-0.609c-0.361-0.495-0.541-0.969-0.541-1.42v-0.203V103.131z"/>
	<path d="M168.122,103.131c0-0.36,0.237-0.619,0.71-0.778c0.473-0.157,0.822-0.349,1.048-0.575c0.496-0.541,1.07-0.923,1.725-1.149
		c0.653-0.226,1.116-0.406,1.387-0.541c0.36-0.226,0.609-0.508,0.744-0.846s0.45-0.597,0.947-0.777l1.624-0.542
		c0.271,0,0.496-0.202,0.676-0.608c0.18-0.405,0.292-0.631,0.338-0.676c-0.046-0.226-0.068-0.609-0.068-1.15s0-1.059,0-1.556
		c0-0.631,0-1.206,0-1.725s0.022-0.958,0.068-1.319l0.406-2.029V78.443c0-0.09,0.022-0.293,0.067-0.609
		c0.044-0.314,0.09-0.652,0.135-1.014c0.044-0.361,0.09-0.699,0.135-1.015c0.044-0.315,0.09-0.519,0.135-0.609v-0.474
		c-0.045-0.271-0.091-0.687-0.135-1.251c-0.045-0.563-0.091-1.127-0.135-1.691c-0.045-0.563-0.091-1.07-0.135-1.521
		c-0.045-0.45-0.067-0.721-0.067-0.812c-0.045-0.136-0.091-0.36-0.135-0.677c-0.045-0.314-0.091-0.653-0.135-1.015
		c-0.046-0.36-0.08-0.698-0.102-1.015c-0.023-0.314-0.034-0.541-0.034-0.676c-0.136-0.631-0.362-1.24-0.677-1.826
		c-0.316-0.586-0.676-1.139-1.082-1.657s-0.835-1.037-1.285-1.556c-0.451-0.519-0.879-1.025-1.285-1.522
		c-0.045,0-0.203-0.169-0.474-0.507c-0.271-0.339-0.406-0.552-0.406-0.643l-3.991-3.721l3.247-3.314
		c0.09-0.044,0.281-0.135,0.575-0.271c0.292-0.135,0.608-0.28,0.947-0.439c0.338-0.157,0.676-0.304,1.015-0.439
		s0.597-0.226,0.778-0.271c0.09-0.09,0.281-0.169,0.575-0.236c0.293-0.068,0.609-0.124,0.947-0.17
		c0.338-0.044,0.653-0.078,0.947-0.102c0.293-0.021,0.484-0.033,0.575-0.033c0.856-0.271,1.634-0.643,2.333-1.116
		c0.699-0.474,1.387-0.947,2.063-1.421c0.676-0.473,1.363-0.89,2.063-1.251c0.699-0.36,1.499-0.541,2.401-0.541h1.082
		c0.044,0.046,0.292,0.282,0.744,0.71c0.45,0.43,0.788,0.733,1.015,0.913c0.315,0.497,0.473,1.116,0.473,1.86
		s0.022,1.466,0.068,2.164c0.044,0.7,0.203,1.297,0.473,1.793c0.271,0.497,0.856,0.744,1.759,0.744c0.135,0,0.281,0,0.44,0
		c0.157,0,0.236-0.045,0.236-0.136c0.18-0.044,0.428-0.146,0.744-0.304c0.315-0.158,0.643-0.35,0.981-0.575
		c0.338-0.226,0.653-0.45,0.947-0.677c0.293-0.225,0.507-0.405,0.643-0.541l2.773-2.097c0.09-0.09,0.382-0.305,0.879-0.643
		c0.496-0.338,0.834-0.597,1.015-0.778c0.044,0,0.225-0.01,0.542-0.033c0.315-0.022,0.643-0.045,0.98-0.067
		c0.338-0.022,0.665-0.057,0.981-0.102c0.315-0.045,0.541-0.09,0.676-0.136c0.044,0,0.191-0.044,0.439-0.135
		c0.248-0.09,0.518-0.18,0.812-0.271c0.292-0.09,0.552-0.18,0.778-0.271c0.225-0.09,0.36-0.136,0.406-0.136h0.744
		c1.037,0,1.882,0.316,2.536,0.947c0.653,0.632,1.251,1.33,1.792,2.097c0.315,0.405,0.507,0.98,0.575,1.725
		c0.067,0.744,0.213,1.297,0.439,1.657c0,0.136,0.068,0.271,0.203,0.406l0.271,0.271c0,2.164-0.304,4.092-0.913,5.783
		c-0.609,1.69-1.635,3.055-3.078,4.092c-0.406,0.091-0.879,0.169-1.42,0.236c-0.541,0.068-0.993,0.102-1.353,0.102
		c-0.947,0-1.646-0.056-2.097-0.169c-0.451-0.112-0.79-0.281-1.015-0.507c-0.226-0.226-0.417-0.519-0.575-0.88
		c-0.159-0.36-0.417-0.788-0.778-1.285c-0.316-0.405-0.688-0.732-1.116-0.98c-0.429-0.247-0.846-0.428-1.251-0.541
		c-0.406-0.112-0.778-0.191-1.116-0.237c-0.338-0.044-0.553-0.067-0.643-0.067l-2.909-0.474l-2.435,0.677l-0.812,1.082
		c-0.226,0.046-0.541,0.26-0.947,0.643c-0.406,0.384-0.801,0.812-1.184,1.285c-0.383,0.474-0.71,0.971-0.98,1.488
		c-0.271,0.519-0.406,0.937-0.406,1.251l-0.338,4.87l0.338,1.895v3.517c0,0.091,0.034,0.35,0.101,0.778
		c0.068,0.429,0.146,0.756,0.237,0.98l-0.474,6.088l0.474,2.3c0,0.315-0.079,0.632-0.237,0.946
		c-0.158,0.316-0.237,0.722-0.237,1.218l0.474,2.3l-0.474,2.503c0,0.045,0,0.112,0,0.202c0,0.092,0.044,0.136,0.136,0.136
		c0.044,0.271,0.191,0.654,0.439,1.149c0.247,0.497,0.518,1.015,0.812,1.557c0.293,0.541,0.563,1.048,0.812,1.521
		c0.247,0.474,0.416,0.823,0.507,1.048c0,0.046,0.044,0.136,0.135,0.271c0.09,0.135,0.203,0.202,0.338,0.202
		c0.406,0.227,0.8,0.52,1.184,0.88c0.383,0.361,0.846,0.632,1.387,0.812c0.315,0.135,0.721,0.26,1.218,0.372
		c0.496,0.113,1.025,0.236,1.589,0.372c0.563,0.135,1.126,0.294,1.691,0.474c0.563,0.181,1.093,0.405,1.589,0.676
		c0.271,0.361,0.53,0.79,0.778,1.285c0.248,0.497,0.372,1.038,0.372,1.624c0,0.496-0.079,0.856-0.236,1.082
		c-0.159,0.226-0.396,0.451-0.71,0.676c-0.271,0.181-0.722,0.271-1.353,0.271l-2.165,0.203c-0.768,0.091-1.455,0.136-2.063,0.136
		c-0.609,0-1.116,0-1.522,0c-0.361,0-0.756-0.057-1.184-0.169c-0.429-0.112-0.891-0.17-1.387-0.17c-1.263,0-2.458,0.17-3.585,0.508
		c-1.127,0.338-2.277,0.507-3.45,0.507l-3.043-1.015l-4.329,1.015h-1.15l-0.947-0.676c-0.091,0-0.338-0.034-0.744-0.102
		s-0.993-0.146-1.759-0.237c-0.181,0-0.361-0.09-0.541-0.271c-0.135-0.044-0.35-0.111-0.643-0.202
		c-0.294-0.09-0.756-0.293-1.387-0.609c-0.361-0.495-0.541-0.969-0.541-1.42v-0.203V103.131z"/>
	<path d="M219.934,71.476c0.631-2.39,1.42-4.678,2.368-6.865c0.947-2.188,2.029-4.431,3.247-6.73l1.894-2.232l0.812-1.42
		c0.135-0.226,0.293-0.429,0.474-0.609c0.135-0.18,0.271-0.349,0.406-0.507c0.135-0.157,0.271-0.281,0.406-0.372l3.991-2.841
		c0.225-0.271,0.474-0.462,0.744-0.575c0.271-0.111,0.529-0.203,0.778-0.271c0.247-0.067,0.507-0.135,0.778-0.203
		c0.271-0.067,0.518-0.213,0.744-0.439l1.285-1.285l1.082-0.474h1.015l3.652-1.42c0.18-0.09,0.44-0.18,0.778-0.271
		c0.338-0.09,0.687-0.18,1.049-0.271c0.36-0.09,0.698-0.158,1.014-0.203c0.315-0.045,0.542-0.067,0.677-0.067h6.899
		c0.406-0.18,0.755-0.281,1.048-0.305c0.293-0.022,0.53-0.034,0.71-0.034c1.307,0,2.615,0.215,3.923,0.643
		c1.308,0.43,2.615,0.823,3.923,1.184h2.57c0.09,0,0.225,0.08,0.406,0.237c0.18,0.158,0.383,0.35,0.609,0.575l0.744,0.743
		c1.127,0.633,2.232,1.252,3.314,1.86c1.083,0.609,2.165,1.274,3.247,1.995c0.902,0.723,1.612,1.522,2.131,2.401
		c0.518,0.88,1.116,1.748,1.792,2.604c0.09,0.091,0.259,0.305,0.507,0.643c0.247,0.338,0.507,0.71,0.778,1.116
		c0.271,0.405,0.529,0.812,0.778,1.217c0.247,0.406,0.417,0.723,0.507,0.947l0.406,0.812l2.638,8.658
		c0.135,0.271,0.247,0.587,0.338,0.947c0.09,0.361,0.18,0.71,0.271,1.048c0.09,0.338,0.158,0.654,0.203,0.947
		c0.044,0.294,0.067,0.485,0.067,0.575v2.164l-0.406,1.691v4.869l-3.517,10.35c-0.903,1.217-1.85,2.469-2.841,3.754
		c-0.993,1.285-1.985,2.492-2.976,3.618c0,0.046-0.091,0.159-0.271,0.339c-0.271,0.361-0.587,0.744-0.947,1.149
		c-0.361,0.406-0.767,0.79-1.217,1.15c-0.091,0.091-0.35,0.158-0.778,0.202c-0.429,0.046-0.891,0.181-1.387,0.406l-4.059,2.367
		c-0.091,0-0.282,0.034-0.575,0.102c-0.294,0.067-0.609,0.136-0.947,0.203c-0.338,0.067-0.666,0.125-0.981,0.169
		c-0.316,0.046-0.541,0.067-0.676,0.067c-0.812,0.181-1.478,0.43-1.996,0.744c-0.519,0.316-1.251,0.474-2.198,0.474l-6.899,0.203
		c-0.181,0-0.564-0.011-1.15-0.034c-0.587-0.022-1.218-0.044-1.894-0.067c-0.676-0.022-1.331-0.045-1.961-0.067
		c-0.632-0.022-1.105-0.034-1.42-0.034l-1.894-0.406l-4.329-0.338l-0.676-0.338l-6.696-4.667l-1.624-0.744
		c-0.812-0.45-1.488-1.116-2.029-1.996c-0.542-0.879-1.083-1.725-1.624-2.536c-0.497-0.901-1.004-1.713-1.522-2.435
		c-0.519-0.721-1.026-1.397-1.522-2.029c-0.406-0.721-0.845-1.421-1.319-2.097c-0.474-0.677-0.902-1.375-1.285-2.097
		c-0.384-0.722-0.71-1.455-0.98-2.199c-0.271-0.743-0.406-1.565-0.406-2.469l-0.541-5.275L219.934,71.476z M233.868,81.013
		c0.36,0.405,0.619,0.768,0.778,1.082c0.157,0.316,0.271,0.608,0.338,0.879c0.068,0.271,0.112,0.564,0.135,0.88
		c0.022,0.315,0.079,0.699,0.169,1.149c0.36,1.488,0.947,3.044,1.758,4.667c0.812,1.624,1.668,3,2.57,4.126l2.57,2.436
		c0.902,1.128,1.759,2.243,2.57,3.348c0.812,1.105,1.826,1.906,3.044,2.401h2.706c0.991,0,2.051-0.123,3.179-0.372
		c1.126-0.247,2.254-0.462,3.382-0.643c0.631,0,1.194-0.033,1.691-0.102c0.496-0.067,1.104-0.326,1.826-0.777l0.812-0.88
		c2.164-1.172,4.035-2.614,5.614-4.328l4.667-7.373l-0.203-7.034c0.225-0.36,0.36-0.699,0.406-1.015
		c0.044-0.315,0.067-0.789,0.067-1.421c0-0.766-0.181-1.465-0.541-2.097c-0.361-0.631-0.541-1.397-0.541-2.3l0.609-2.57
		c-0.135-0.541-0.271-1.172-0.406-1.894c-0.135-0.721-0.282-1.454-0.44-2.198c-0.158-0.744-0.338-1.442-0.541-2.097
		c-0.203-0.653-0.463-1.184-0.778-1.59l-3.45-3.991c-0.135-0.09-0.304-0.292-0.507-0.608c-0.203-0.314-0.406-0.677-0.608-1.082
		c-0.203-0.406-0.384-0.788-0.542-1.15c-0.158-0.36-0.237-0.631-0.237-0.812l-2.029-1.42c-0.812-0.901-1.624-1.68-2.435-2.334
		c-0.812-0.653-1.782-1.07-2.909-1.251l-3.314-0.406c-1.173-0.18-2.209-0.394-3.111-0.643c-0.902-0.247-1.917-0.372-3.043-0.372
		h-0.474l-4.126,2.436l-6.561,7.643c-0.181,0.497-0.338,0.947-0.474,1.354c-0.135,0.405-0.203,0.812-0.203,1.217l-0.338,2.098
		l-1.082,2.772V68.5c0,0.632,0.101,1.218,0.304,1.759s0.304,1.173,0.304,1.894c0,0.362-0.023,0.643-0.067,0.846
		c-0.045,0.203-0.226,0.418-0.541,0.643V81.013z"/>
	<path d="M293.255,103.131c0-0.36,0.237-0.619,0.71-0.778c0.473-0.157,0.822-0.349,1.048-0.575c0.496-0.541,1.07-0.923,1.725-1.149
		c0.653-0.226,1.116-0.406,1.387-0.541c0.36-0.226,0.609-0.508,0.744-0.846s0.45-0.597,0.947-0.777l1.624-0.542
		c0.271,0,0.496-0.202,0.676-0.608c0.18-0.405,0.292-0.631,0.338-0.676c-0.046-0.226-0.068-0.609-0.068-1.15s0-1.059,0-1.556
		c0-0.631,0-1.206,0-1.725s0.022-0.958,0.068-1.319l0.406-2.029V78.443c0-0.09,0.022-0.293,0.067-0.609
		c0.044-0.314,0.09-0.652,0.135-1.014c0.044-0.361,0.09-0.699,0.135-1.015c0.044-0.315,0.09-0.519,0.135-0.609v-0.474
		c-0.045-0.271-0.091-0.687-0.135-1.251c-0.045-0.563-0.091-1.127-0.135-1.691c-0.045-0.563-0.091-1.07-0.135-1.521
		c-0.045-0.45-0.067-0.721-0.067-0.812c-0.045-0.136-0.091-0.36-0.135-0.677c-0.045-0.314-0.091-0.653-0.135-1.015
		c-0.046-0.36-0.08-0.698-0.102-1.015c-0.023-0.314-0.034-0.541-0.034-0.676c-0.136-0.631-0.362-1.24-0.677-1.826
		c-0.316-0.586-0.676-1.139-1.082-1.657s-0.835-1.037-1.285-1.556c-0.451-0.519-0.879-1.025-1.285-1.522
		c-0.045,0-0.203-0.169-0.474-0.507c-0.271-0.339-0.406-0.552-0.406-0.643l-3.991-3.721l3.247-3.314
		c0.09-0.044,0.281-0.135,0.575-0.271c0.292-0.135,0.608-0.28,0.947-0.439c0.338-0.157,0.676-0.304,1.015-0.439
		s0.597-0.226,0.778-0.271c0.09-0.09,0.281-0.169,0.575-0.236c0.293-0.068,0.609-0.124,0.947-0.17
		c0.338-0.044,0.653-0.078,0.947-0.102c0.293-0.021,0.484-0.033,0.575-0.033c0.856-0.271,1.634-0.643,2.333-1.116
		c0.699-0.474,1.387-0.947,2.063-1.421c0.676-0.473,1.363-0.89,2.063-1.251c0.699-0.36,1.499-0.541,2.401-0.541h1.082
		c0.044,0.046,0.292,0.282,0.744,0.71c0.45,0.43,0.788,0.733,1.015,0.913c0.315,0.497,0.473,1.116,0.473,1.86
		s0.022,1.466,0.068,2.164c0.044,0.7,0.203,1.297,0.473,1.793c0.271,0.497,0.856,0.744,1.759,0.744c0.135,0,0.281,0,0.44,0
		c0.157,0,0.236-0.045,0.236-0.136c0.18-0.044,0.428-0.146,0.744-0.304c0.315-0.158,0.643-0.35,0.981-0.575
		c0.338-0.226,0.653-0.45,0.947-0.677c0.293-0.225,0.507-0.405,0.643-0.541l2.773-2.097c0.09-0.09,0.382-0.305,0.879-0.643
		c0.496-0.338,0.834-0.597,1.015-0.778c0.044,0,0.225-0.01,0.542-0.033c0.315-0.022,0.643-0.045,0.98-0.067
		c0.338-0.022,0.665-0.057,0.981-0.102c0.315-0.045,0.541-0.09,0.676-0.136c0.044,0,0.191-0.044,0.439-0.135
		c0.248-0.09,0.518-0.18,0.812-0.271c0.292-0.09,0.552-0.18,0.778-0.271c0.225-0.09,0.36-0.136,0.406-0.136h0.744
		c1.037,0,1.882,0.316,2.536,0.947c0.653,0.632,1.251,1.33,1.792,2.097c0.315,0.405,0.507,0.98,0.575,1.725
		c0.067,0.744,0.213,1.297,0.439,1.657c0,0.136,0.068,0.271,0.203,0.406l0.271,0.271c0,2.164-0.304,4.092-0.913,5.783
		c-0.609,1.69-1.635,3.055-3.078,4.092c-0.406,0.091-0.879,0.169-1.42,0.236c-0.541,0.068-0.993,0.102-1.353,0.102
		c-0.947,0-1.646-0.056-2.097-0.169c-0.451-0.112-0.79-0.281-1.015-0.507c-0.226-0.226-0.417-0.519-0.575-0.88
		c-0.159-0.36-0.417-0.788-0.778-1.285c-0.316-0.405-0.688-0.732-1.116-0.98c-0.429-0.247-0.846-0.428-1.251-0.541
		c-0.406-0.112-0.778-0.191-1.116-0.237c-0.338-0.044-0.553-0.067-0.643-0.067l-2.909-0.474l-2.435,0.677l-0.812,1.082
		c-0.226,0.046-0.541,0.26-0.947,0.643c-0.406,0.384-0.801,0.812-1.184,1.285c-0.383,0.474-0.71,0.971-0.98,1.488
		c-0.271,0.519-0.406,0.937-0.406,1.251l-0.338,4.87l0.338,1.895v3.517c0,0.091,0.034,0.35,0.101,0.778
		c0.068,0.429,0.146,0.756,0.237,0.98l-0.474,6.088l0.474,2.3c0,0.315-0.079,0.632-0.237,0.946
		c-0.158,0.316-0.237,0.722-0.237,1.218l0.474,2.3l-0.474,2.503c0,0.045,0,0.112,0,0.202c0,0.092,0.044,0.136,0.136,0.136
		c0.044,0.271,0.191,0.654,0.439,1.149c0.247,0.497,0.518,1.015,0.812,1.557c0.293,0.541,0.563,1.048,0.812,1.521
		c0.247,0.474,0.416,0.823,0.507,1.048c0,0.046,0.044,0.136,0.135,0.271c0.09,0.135,0.203,0.202,0.338,0.202
		c0.406,0.227,0.8,0.52,1.184,0.88c0.383,0.361,0.846,0.632,1.387,0.812c0.315,0.135,0.721,0.26,1.218,0.372
		c0.496,0.113,1.025,0.236,1.589,0.372c0.563,0.135,1.126,0.294,1.691,0.474c0.563,0.181,1.093,0.405,1.589,0.676
		c0.271,0.361,0.53,0.79,0.778,1.285c0.248,0.497,0.372,1.038,0.372,1.624c0,0.496-0.079,0.856-0.236,1.082
		c-0.159,0.226-0.396,0.451-0.71,0.676c-0.271,0.181-0.722,0.271-1.353,0.271l-2.165,0.203c-0.768,0.091-1.455,0.136-2.063,0.136
		c-0.609,0-1.116,0-1.522,0c-0.361,0-0.756-0.057-1.184-0.169c-0.429-0.112-0.891-0.17-1.387-0.17c-1.263,0-2.458,0.17-3.585,0.508
		c-1.127,0.338-2.277,0.507-3.45,0.507l-3.043-1.015l-4.329,1.015h-1.15l-0.947-0.676c-0.091,0-0.338-0.034-0.744-0.102
		s-0.993-0.146-1.759-0.237c-0.181,0-0.361-0.09-0.541-0.271c-0.135-0.044-0.35-0.111-0.643-0.202
		c-0.294-0.09-0.756-0.293-1.387-0.609c-0.361-0.495-0.541-0.969-0.541-1.42v-0.203V103.131z"/>
	<path d="M375.302,71.476c0.631-2.39,1.42-4.678,2.368-6.865c0.947-2.188,2.029-4.431,3.247-6.73l1.894-2.232l0.812-1.42
		c0.135-0.226,0.293-0.429,0.474-0.609c0.135-0.18,0.27-0.349,0.405-0.507c0.136-0.157,0.271-0.281,0.405-0.372l3.991-2.841
		c0.226-0.271,0.474-0.462,0.744-0.575c0.271-0.111,0.529-0.203,0.778-0.271c0.246-0.067,0.507-0.135,0.777-0.203
		c0.271-0.067,0.518-0.213,0.744-0.439l1.285-1.285l1.082-0.474h1.015l3.652-1.42c0.18-0.09,0.44-0.18,0.778-0.271
		c0.338-0.09,0.687-0.18,1.049-0.271c0.359-0.09,0.697-0.158,1.014-0.203c0.314-0.045,0.541-0.067,0.677-0.067h6.899
		c0.405-0.18,0.754-0.281,1.048-0.305c0.293-0.022,0.53-0.034,0.71-0.034c1.308,0,2.615,0.215,3.924,0.643
		c1.307,0.43,2.614,0.823,3.923,1.184h2.57c0.09,0,0.226,0.08,0.405,0.237c0.18,0.158,0.383,0.35,0.609,0.575l0.744,0.743
		c1.127,0.633,2.232,1.252,3.314,1.86c1.082,0.609,2.164,1.274,3.246,1.995c0.902,0.723,1.611,1.522,2.131,2.401
		c0.518,0.88,1.116,1.748,1.793,2.604c0.09,0.091,0.258,0.305,0.507,0.643c0.247,0.338,0.507,0.71,0.778,1.116
		c0.27,0.405,0.529,0.812,0.777,1.217c0.247,0.406,0.416,0.723,0.508,0.947l0.405,0.812l2.638,8.658
		c0.136,0.271,0.248,0.587,0.338,0.947c0.09,0.361,0.18,0.71,0.271,1.048c0.09,0.338,0.157,0.654,0.203,0.947
		c0.044,0.294,0.066,0.485,0.066,0.575v2.164l-0.405,1.691v4.869l-3.517,10.35c-0.903,1.217-1.85,2.469-2.842,3.754
		s-1.984,2.492-2.976,3.618c0,0.046-0.091,0.159-0.271,0.339c-0.271,0.361-0.587,0.744-0.947,1.149
		c-0.361,0.406-0.768,0.79-1.217,1.15c-0.092,0.091-0.351,0.158-0.778,0.202c-0.429,0.046-0.892,0.181-1.387,0.406l-4.059,2.367
		c-0.091,0-0.282,0.034-0.575,0.102s-0.608,0.136-0.946,0.203c-0.339,0.067-0.666,0.125-0.981,0.169
		c-0.315,0.046-0.541,0.067-0.676,0.067c-0.813,0.181-1.478,0.43-1.996,0.744c-0.518,0.316-1.25,0.474-2.197,0.474l-6.899,0.203
		c-0.181,0-0.564-0.011-1.149-0.034c-0.588-0.022-1.219-0.044-1.895-0.067c-0.676-0.022-1.33-0.045-1.961-0.067
		c-0.633-0.022-1.105-0.034-1.421-0.034l-1.894-0.406l-4.33-0.338l-0.676-0.338l-6.696-4.667l-1.624-0.744
		c-0.811-0.45-1.487-1.116-2.028-1.996c-0.542-0.879-1.083-1.725-1.624-2.536c-0.497-0.901-1.004-1.713-1.522-2.435
		c-0.519-0.721-1.026-1.397-1.522-2.029c-0.406-0.721-0.845-1.421-1.319-2.097c-0.474-0.677-0.902-1.375-1.285-2.097
		c-0.384-0.722-0.71-1.455-0.98-2.199c-0.271-0.743-0.406-1.565-0.406-2.469l-0.541-5.275L375.302,71.476z M389.236,81.013
		c0.359,0.405,0.619,0.768,0.777,1.082c0.157,0.316,0.271,0.608,0.338,0.879c0.068,0.271,0.112,0.564,0.135,0.88
		c0.023,0.315,0.079,0.699,0.17,1.149c0.36,1.488,0.947,3.044,1.758,4.667c0.813,1.624,1.668,3,2.57,4.126l2.57,2.436
		c0.902,1.128,1.76,2.243,2.57,3.348c0.813,1.105,1.826,1.906,3.045,2.401h2.705c0.991,0,2.051-0.123,3.18-0.372
		c1.126-0.247,2.254-0.462,3.381-0.643c0.631,0,1.195-0.033,1.691-0.102c0.496-0.067,1.104-0.326,1.826-0.777l0.813-0.88
		c2.164-1.172,4.034-2.614,5.613-4.328l4.667-7.373l-0.202-7.034c0.225-0.36,0.359-0.699,0.405-1.015
		c0.044-0.315,0.067-0.789,0.067-1.421c0-0.766-0.181-1.465-0.541-2.097c-0.361-0.631-0.541-1.397-0.541-2.3l0.609-2.57
		c-0.136-0.541-0.271-1.172-0.406-1.894c-0.135-0.721-0.282-1.454-0.439-2.198c-0.158-0.744-0.338-1.442-0.541-2.097
		c-0.203-0.653-0.463-1.184-0.778-1.59l-3.45-3.991c-0.135-0.09-0.304-0.292-0.507-0.608c-0.202-0.314-0.405-0.677-0.608-1.082
		c-0.203-0.406-0.384-0.788-0.541-1.15c-0.158-0.36-0.237-0.631-0.237-0.812l-2.028-1.42c-0.813-0.901-1.624-1.68-2.436-2.334
		c-0.813-0.653-1.781-1.07-2.908-1.251l-3.314-0.406c-1.174-0.18-2.21-0.394-3.111-0.643c-0.902-0.247-1.918-0.372-3.044-0.372
		h-0.474l-4.126,2.436l-6.562,7.643c-0.18,0.497-0.338,0.947-0.473,1.354c-0.136,0.405-0.203,0.812-0.203,1.217l-0.338,2.098
		l-1.082,2.772V68.5c0,0.632,0.101,1.218,0.304,1.759s0.304,1.173,0.304,1.894c0,0.362-0.022,0.643-0.066,0.846
		c-0.046,0.203-0.227,0.418-0.541,0.643V81.013z"/>
	<path d="M501.721,106.918c-2.887,0-5.525-0.551-7.914-1.657c-2.391-1.104-4.353-2.941-5.885-5.512l-3.314-3.383
		c-0.046-0.225-0.203-0.652-0.474-1.285c-0.271-0.631-0.564-1.307-0.88-2.028s-0.608-1.375-0.879-1.962
		c-0.271-0.586-0.406-0.969-0.406-1.15v-3.652c-0.09-0.541-0.236-1.024-0.439-1.454c-0.203-0.428-0.429-0.855-0.676-1.285
		c-0.248-0.428-0.463-0.855-0.643-1.285c-0.182-0.428-0.271-0.913-0.271-1.454l0.609-8.319c0-0.406-0.079-0.834-0.236-1.285
		c-0.158-0.45-0.237-0.924-0.237-1.421c0-0.631,0.079-1.172,0.237-1.623c0.157-0.45,0.326-0.901,0.507-1.353
		c0.18-0.45,0.349-0.936,0.507-1.455c0.158-0.518,0.237-1.184,0.237-1.995l4.735-6.087l-0.475-1.015
		c0.136-0.18,0.293-0.383,0.475-0.609c0.135-0.18,0.28-0.382,0.439-0.608c0.157-0.226,0.304-0.45,0.439-0.677
		c2.66-3.291,5.749-5.918,9.267-7.88c3.517-1.961,7.372-3.506,11.565-4.633l1.219-0.339c2.435,0,4.88,0.227,7.338,0.677
		c2.457,0.451,4.791,1.082,7.001,1.894c0.315,0.768,0.822,1.252,1.522,1.455c0.698,0.202,1.363,0.304,1.995,0.304
		c0.405,0.722,0.788,1.353,1.149,1.895c0.361,0.541,0.677,1.082,0.947,1.623s0.484,1.116,0.643,1.725
		c0.157,0.608,0.236,1.319,0.236,2.131c0,1.623-0.564,2.999-1.69,4.126c-1.128,1.128-2.729,1.69-4.803,1.69
		c-0.136-0.18-0.315-0.416-0.541-0.71c-0.226-0.293-0.474-0.585-0.744-0.879c-0.271-0.293-0.519-0.552-0.744-0.778
		c-0.226-0.225-0.405-0.36-0.541-0.405c-0.046-0.09-0.271-0.17-0.677-0.237c-0.405-0.067-0.631-0.102-0.676-0.102
		c-1.082-0.495-1.906-1.273-2.469-2.333c-0.564-1.06-1.15-2.119-1.759-3.18c-0.608-1.059-1.353-1.995-2.231-2.807
		c-0.88-0.812-2.199-1.218-3.957-1.218c-1.309,0-2.504,0.215-3.586,0.643c-1.082,0.43-2.119,0.993-3.111,1.691
		c-0.992,0.699-1.928,1.511-2.807,2.435c-0.879,0.925-1.77,1.884-2.672,2.875c-0.181,0.361-0.473,0.733-0.879,1.116
		c-0.406,0.384-0.677,0.756-0.813,1.116v2.772l-0.541,0.813c-0.721,1.443-1.217,2.818-1.488,4.126
		c-0.27,1.308-0.405,2.796-0.405,4.464c0,0.271,0,0.598,0,0.98c0,0.384,0.022,0.768,0.067,1.15c0.045,0.384,0.09,0.722,0.136,1.015
		c0.044,0.294,0.136,0.439,0.271,0.439c0,0.361,0.011,0.801,0.033,1.318c0.023,0.52,0.057,1.026,0.102,1.522
		c0.045,0.497,0.112,1.105,0.203,1.826l0.609,0.947v1.894c0,1.038,0.056,1.939,0.169,2.706c0.112,0.767,0.292,1.499,0.541,2.198
		c0.247,0.699,0.541,1.397,0.88,2.097c0.338,0.699,0.709,1.478,1.115,2.333c0,0.091,0.18,0.396,0.541,0.913
		c0.361,0.52,0.744,1.083,1.15,1.691s0.788,1.173,1.149,1.69c0.36,0.52,0.585,0.846,0.677,0.981c0.36,0.405,0.834,0.654,1.42,0.744
		c0.586,0.091,1.037,0.271,1.354,0.541c0.721,0.541,1.318,1.004,1.792,1.387c0.474,0.384,0.946,0.71,1.421,0.98
		c0.473,0.271,0.98,0.474,1.521,0.608c0.541,0.136,1.262,0.203,2.164,0.203c2.074,0,4.193-0.428,6.358-1.285
		c2.165-0.855,4.059-1.916,5.682-3.179c0.36-0.271,0.755-0.619,1.184-1.049c0.429-0.428,0.868-0.846,1.319-1.251
		c0.45-0.406,0.913-0.767,1.387-1.082c0.473-0.315,0.936-0.474,1.387-0.474c0.812,0,1.363,0.158,1.656,0.474s0.44,0.856,0.44,1.623
		v0.812c-0.768,2.57-1.974,4.78-3.619,6.629c-1.646,1.85-3.551,3.371-5.716,4.565c-2.164,1.195-4.486,2.086-6.967,2.672
		s-4.915,0.879-7.305,0.879h-2.097l-1.218-1.015H501.721z"/>
	<path d="M567.735,99.276c-0.181,0.091-0.463,0.35-0.845,0.777c-0.385,0.43-0.688,0.643-0.914,0.643l-2.57,1.285
		c-0.09,0.046-0.236,0.147-0.439,0.305c-0.203,0.158-0.429,0.338-0.676,0.541c-0.248,0.203-0.463,0.384-0.643,0.541
		c-0.182,0.158-0.295,0.237-0.338,0.237c-0.092,0.045-0.261,0.091-0.508,0.135c-0.248,0.046-0.52,0.091-0.813,0.136
		s-0.564,0.079-0.811,0.102c-0.249,0.022-0.439,0.033-0.575,0.033c-0.362,0.091-0.688,0.248-0.981,0.474
		c-0.293,0.227-0.586,0.485-0.879,0.777c-0.294,0.294-0.62,0.587-0.98,0.88c-0.361,0.294-0.768,0.553-1.218,0.777h-6.426
		c-0.226,0-0.53-0.044-0.913-0.135c-0.384-0.09-0.789-0.203-1.217-0.338c-0.43-0.136-0.846-0.293-1.252-0.474
		c-0.406-0.18-0.723-0.339-0.947-0.474c0-0.09-0.125-0.305-0.371-0.643c-0.249-0.338-0.396-0.619-0.44-0.846
		c-0.091-0.09-0.159-0.203-0.202-0.338c-0.136-0.136-0.203-0.271-0.203-0.406l-1.826-1.759c-0.361-0.721-0.666-1.634-0.914-2.739
		c-0.248-1.104-0.371-2.018-0.371-2.739l0.473-1.42l-0.473-1.421v-0.812c0-0.226,0.056-0.529,0.168-0.913
		c0.113-0.383,0.237-0.767,0.373-1.15c0.135-0.382,0.27-0.743,0.405-1.082c0.136-0.338,0.247-0.575,0.339-0.71
		c0.044-0.044,0.213-0.214,0.507-0.507c0.292-0.293,0.619-0.632,0.98-1.015c0.36-0.383,0.687-0.732,0.981-1.049
		c0.293-0.315,0.483-0.541,0.574-0.677c0.045,0,0.214-0.157,0.508-0.473c0.293-0.315,0.439-0.519,0.439-0.609l0.135-0.271
		c0.045-0.09,0.068-0.18,0.068-0.271c0.766-0.496,1.51-1.025,2.232-1.59c0.721-0.563,1.531-1.048,2.435-1.454
		c0.044-0.044,0.372-0.191,0.98-0.439c0.608-0.247,1.285-0.518,2.029-0.812c0.744-0.293,1.477-0.552,2.198-0.778
		c0.721-0.225,1.262-0.382,1.623-0.473c0.451-0.226,0.924-0.519,1.421-0.88c0.495-0.36,0.98-0.698,1.454-1.015
		c0.474-0.314,0.913-0.597,1.318-0.846c0.406-0.247,0.744-0.372,1.016-0.372h1.758c0.045,0,0.18-0.067,0.406-0.202
		c0.09-0.045,0.203-0.112,0.338-0.203c0.18-0.045,0.619-0.112,1.319-0.203c0.698-0.09,1.16-0.135,1.387-0.135l0.879-1.15
		c0.315-0.18,0.632-0.326,0.947-0.439c0.315-0.112,0.608-0.237,0.88-0.372c0.27-0.136,0.507-0.326,0.709-0.575
		c0.203-0.247,0.373-0.597,0.508-1.048c0.314-0.947,0.529-1.95,0.643-3.011c0.112-1.059,0.169-2.063,0.169-3.01v-1.488
		c0-0.09-0.136-0.338-0.405-0.743c-0.271-0.406-0.406-0.699-0.406-0.88l-0.812-3.449l-1.488-1.826l-0.744-1.421
		c-0.181-0.09-0.361-0.314-0.541-0.676c-0.181-0.361-0.294-0.653-0.338-0.88c-0.091-0.271-0.429-0.529-1.015-0.777
		c-0.587-0.248-1.24-0.474-1.961-0.677c-0.723-0.203-1.433-0.36-2.131-0.474c-0.7-0.112-1.184-0.169-1.455-0.169
		c-0.09,0-0.439-0.011-1.048-0.034c-0.608-0.021-1.116-0.033-1.522-0.033c-0.405,0-0.958,0.033-1.656,0.102
		c-0.7,0.067-1.365,0.202-1.996,0.405c-0.632,0.203-1.184,0.485-1.657,0.846c-0.474,0.361-0.71,0.835-0.71,1.42v0.609
		c0.045,0.091,0.135,0.282,0.271,0.575s0.271,0.608,0.405,0.946c0.136,0.339,0.26,0.654,0.373,0.947
		c0.111,0.294,0.168,0.485,0.168,0.575c0,0.181-0.057,0.439-0.168,0.777c-0.113,0.338-0.215,0.688-0.305,1.049
		c-0.316,1.443-0.744,2.548-1.285,3.314s-1.398,1.511-2.57,2.231l-0.813,0.609c-0.18,0.135-0.338,0.271-0.473,0.405h-5.141
		c-0.406,0-0.744-0.157-1.015-0.474c-0.271-0.314-0.497-0.687-0.677-1.115s-0.315-0.856-0.405-1.285
		c-0.091-0.429-0.136-0.755-0.136-0.981c0-0.271,0.045-0.631,0.136-1.082c0.09-0.45,0.226-0.89,0.405-1.319
		c0.18-0.428,0.373-0.833,0.575-1.217c0.203-0.383,0.417-0.688,0.643-0.913c0.136-0.315,0.293-0.586,0.474-0.813
		c0.09-0.225,0.191-0.405,0.305-0.541c0.111-0.135,0.191-0.225,0.236-0.271l1.082-1.082c0.992-0.631,1.826-1.285,2.503-1.961
		c0.677-0.677,1.465-1.397,2.367-2.165l4.735-3.111c0.449-0.406,0.867-0.71,1.251-0.913c0.382-0.203,0.778-0.372,1.184-0.507
		c0.405-0.136,0.822-0.248,1.251-0.339c0.428-0.09,0.936-0.247,1.522-0.474c0.044,0,0.169-0.044,0.372-0.135
		c0.203-0.09,0.416-0.191,0.643-0.305c0.225-0.112,0.449-0.213,0.676-0.305c0.226-0.09,0.383-0.157,0.474-0.202
		c0.226-0.045,0.665-0.136,1.319-0.271c0.652-0.136,1.353-0.271,2.097-0.406c0.744-0.135,1.454-0.247,2.13-0.338
		c0.678-0.09,1.15-0.136,1.421-0.136c0.226,0,0.44,0.079,0.643,0.237c0.203,0.158,0.349,0.236,0.44,0.236
		c0.135,0,0.338,0.012,0.608,0.034s0.552,0.057,0.845,0.102s0.564,0.079,0.813,0.101c0.247,0.023,0.416,0.058,0.507,0.102
		c0.271,0.091,0.632,0.215,1.083,0.372c0.449,0.159,0.9,0.328,1.352,0.508c0.451,0.181,0.857,0.338,1.219,0.474
		c0.359,0.135,0.584,0.226,0.676,0.271c0.045,0.045,0.158,0.158,0.338,0.338c0.18,0.181,0.395,0.396,0.643,0.643
		c0.248,0.248,0.484,0.485,0.711,0.71c0.225,0.227,0.383,0.406,0.473,0.541c0.496,0.722,1.004,1.376,1.521,1.962
		c0.52,0.587,0.891,1.263,1.117,2.029c0.225,0.451,0.395,0.937,0.508,1.454c0.111,0.519,0.225,1.026,0.338,1.521
		c0.111,0.497,0.258,0.971,0.439,1.421c0.18,0.451,0.473,0.857,0.879,1.218v4.193c0,2.976-0.102,5.896-0.305,8.759
		c-0.203,2.864-0.35,5.807-0.439,8.827c-0.18,0.451-0.338,0.892-0.473,1.319c-0.137,0.429-0.203,0.913-0.203,1.454
		c0,0.406,0.055,0.857,0.168,1.353c0.113,0.497,0.17,0.857,0.17,1.082l-0.609,1.285c-0.045,0.182-0.066,0.362-0.066,0.542V87.1
		c0,0.677,0.021,1.398,0.066,2.165c0.045,0.768,0.158,1.533,0.338,2.3s0.441,1.488,0.779,2.164c0.338,0.677,0.822,1.241,1.453,1.691
		c0.227,0.181,0.529,0.439,0.914,0.777c0.383,0.339,0.664,0.508,0.846,0.508h0.27c0.451,0,0.969-0.078,1.557-0.237
		c0.584-0.157,1.193-0.338,1.826-0.541c0.631-0.203,1.273-0.394,1.928-0.574c0.652-0.18,1.295-0.271,1.928-0.271
		c0.855,0,1.285,0.271,1.285,0.813c0,1.443-0.283,2.841-0.846,4.193c-0.564,1.353-1.342,2.56-2.334,3.618
		c-0.992,1.061-2.143,1.918-3.449,2.57c-1.309,0.654-2.729,0.981-4.262,0.981s-3.021-0.078-4.465-0.237
		c-1.443-0.157-3.021-0.552-4.734-1.184l-0.473-0.338c-0.092-0.09-0.305-0.372-0.643-0.846s-0.699-0.98-1.082-1.521
		c-0.385-0.541-0.734-1.049-1.049-1.522c-0.316-0.474-0.497-0.777-0.541-0.913l-1.623-1.42h-0.475H567.735z M552.449,89.129
		c0,0.723,0.123,1.556,0.372,2.503c0.247,0.947,0.619,1.838,1.116,2.672c0.495,0.835,1.104,1.545,1.826,2.131
		c0.721,0.586,1.532,0.879,2.435,0.879c0.18,0,0.339-0.022,0.474-0.067s0.518-0.226,1.15-0.541l6.154-0.541
		c0.136-0.09,0.35-0.281,0.643-0.575c0.293-0.293,0.586-0.598,0.88-0.913c0.292-0.315,0.563-0.608,0.812-0.88
		c0.247-0.271,0.416-0.473,0.508-0.608c0.044,0,0.123-0.135,0.236-0.405c0.111-0.271,0.259-0.609,0.439-1.015
		c0.18-0.406,0.349-0.834,0.508-1.285c0.157-0.45,0.304-0.856,0.439-1.218c0.09-0.226,0.169-0.563,0.236-1.015
		c0.068-0.45,0.102-0.698,0.102-0.744c-0.045-0.496-0.091-0.991-0.135-1.488c-0.046-0.495-0.068-0.991-0.068-1.488
		c0-0.45,0.022-0.867,0.068-1.251c0.044-0.383,0.09-0.777,0.135-1.184l0.474-1.488V79.39c0-0.767-0.249-1.465-0.744-2.098
		c-0.497-0.631-1.218-0.946-2.165-0.946c-0.767,0-1.409,0.169-1.928,0.507s-1.115,0.756-1.792,1.252
		c-0.226,0.135-0.677,0.371-1.353,0.71c-0.676,0.338-1.387,0.676-2.131,1.015c-0.744,0.338-1.443,0.666-2.097,0.98
		c-0.654,0.316-1.094,0.519-1.319,0.608l-1.285,0.677c-0.09,0-0.27,0.046-0.541,0.136c-0.271,0.091-0.406,0.158-0.406,0.202
		l-0.946,1.759l-1.624,1.623c-0.226,0.497-0.361,1.072-0.405,1.726C552.471,88.195,552.449,88.724,552.449,89.129z"/>
	<path d="M598.579,103.131c0-0.36,0.236-0.619,0.71-0.778c0.474-0.157,0.822-0.349,1.049-0.575c0.495-0.541,1.07-0.923,1.725-1.149
		c0.653-0.226,1.116-0.406,1.387-0.541c0.36-0.226,0.608-0.508,0.744-0.846c0.135-0.338,0.45-0.597,0.947-0.777l1.623-0.542
		c0.271,0,0.495-0.202,0.676-0.608c0.18-0.405,0.293-0.631,0.339-0.676c-0.046-0.226-0.068-0.609-0.068-1.15s0-1.059,0-1.556
		c0-0.631,0-1.206,0-1.725s0.022-0.958,0.068-1.319l0.405-2.029V78.443c0-0.09,0.022-0.293,0.068-0.609
		c0.044-0.314,0.09-0.652,0.135-1.014s0.09-0.699,0.136-1.015c0.044-0.315,0.09-0.519,0.135-0.609v-0.474
		c-0.045-0.271-0.091-0.687-0.135-1.251c-0.046-0.563-0.091-1.127-0.136-1.691c-0.045-0.563-0.091-1.07-0.135-1.521
		c-0.046-0.45-0.068-0.721-0.068-0.812c-0.045-0.136-0.091-0.36-0.135-0.677c-0.046-0.314-0.091-0.653-0.136-1.015
		c-0.045-0.36-0.079-0.698-0.102-1.015c-0.022-0.314-0.033-0.541-0.033-0.676c-0.136-0.631-0.361-1.24-0.677-1.826
		s-0.676-1.139-1.082-1.657s-0.835-1.037-1.285-1.556c-0.451-0.519-0.879-1.025-1.285-1.522c-0.046,0-0.203-0.169-0.474-0.507
		c-0.271-0.339-0.405-0.552-0.405-0.643l-3.991-3.721l3.247-3.314c0.09-0.044,0.281-0.135,0.574-0.271
		c0.293-0.135,0.609-0.28,0.947-0.439c0.338-0.157,0.677-0.304,1.015-0.439s0.597-0.226,0.778-0.271
		c0.09-0.09,0.28-0.169,0.574-0.236c0.293-0.068,0.609-0.124,0.947-0.17c0.338-0.044,0.653-0.078,0.947-0.102
		c0.292-0.021,0.483-0.033,0.574-0.033c0.856-0.271,1.634-0.643,2.334-1.116c0.698-0.474,1.387-0.947,2.063-1.421
		c0.677-0.473,1.363-0.89,2.063-1.251c0.698-0.36,1.499-0.541,2.401-0.541h1.082c0.044,0.046,0.293,0.282,0.744,0.71
		c0.45,0.43,0.788,0.733,1.015,0.913c0.314,0.497,0.474,1.116,0.474,1.86s0.021,1.466,0.067,2.164
		c0.044,0.7,0.203,1.297,0.474,1.793c0.271,0.497,0.855,0.744,1.759,0.744c0.135,0,0.28,0,0.439,0c0.157,0,0.236-0.045,0.236-0.136
		c0.18-0.044,0.428-0.146,0.744-0.304c0.315-0.158,0.643-0.35,0.98-0.575c0.339-0.226,0.653-0.45,0.947-0.677
		c0.293-0.225,0.508-0.405,0.643-0.541l2.773-2.097c0.09-0.09,0.383-0.305,0.879-0.643s0.834-0.597,1.015-0.778
		c0.045,0,0.226-0.01,0.541-0.033c0.315-0.022,0.643-0.045,0.981-0.067c0.338-0.022,0.664-0.057,0.98-0.102
		c0.314-0.045,0.541-0.09,0.677-0.136c0.044,0,0.19-0.044,0.439-0.135c0.247-0.09,0.518-0.18,0.812-0.271
		c0.293-0.09,0.552-0.18,0.777-0.271c0.226-0.09,0.36-0.136,0.406-0.136h0.744c1.037,0,1.882,0.316,2.536,0.947
		c0.653,0.632,1.252,1.33,1.793,2.097c0.314,0.405,0.507,0.98,0.574,1.725c0.068,0.744,0.214,1.297,0.44,1.657
		c0,0.136,0.067,0.271,0.202,0.406l0.271,0.271c0,2.164-0.304,4.092-0.913,5.783c-0.608,1.69-1.635,3.055-3.077,4.092
		c-0.406,0.091-0.879,0.169-1.421,0.236c-0.541,0.068-0.992,0.102-1.353,0.102c-0.946,0-1.646-0.056-2.097-0.169
		c-0.451-0.112-0.789-0.281-1.015-0.507s-0.417-0.519-0.575-0.88c-0.158-0.36-0.417-0.788-0.777-1.285
		c-0.316-0.405-0.688-0.732-1.116-0.98c-0.429-0.247-0.846-0.428-1.251-0.541c-0.406-0.112-0.778-0.191-1.116-0.237
		c-0.338-0.044-0.553-0.067-0.643-0.067l-2.908-0.474l-2.436,0.677l-0.812,1.082c-0.227,0.046-0.541,0.26-0.947,0.643
		c-0.405,0.384-0.801,0.812-1.184,1.285c-0.384,0.474-0.71,0.971-0.98,1.488c-0.271,0.519-0.406,0.937-0.406,1.251l-0.338,4.87
		l0.338,1.895v3.517c0,0.091,0.034,0.35,0.102,0.778s0.146,0.756,0.237,0.98l-0.474,6.088l0.474,2.3c0,0.315-0.08,0.632-0.237,0.946
		c-0.158,0.316-0.236,0.722-0.236,1.218l0.474,2.3l-0.474,2.503c0,0.045,0,0.112,0,0.202c0,0.092,0.044,0.136,0.135,0.136
		c0.045,0.271,0.191,0.654,0.439,1.149c0.248,0.497,0.519,1.015,0.813,1.557c0.292,0.541,0.563,1.048,0.812,1.521
		c0.247,0.474,0.416,0.823,0.507,1.048c0,0.046,0.045,0.136,0.136,0.271c0.09,0.135,0.203,0.202,0.338,0.202
		c0.406,0.227,0.8,0.52,1.184,0.88c0.383,0.361,0.846,0.632,1.387,0.812c0.315,0.135,0.721,0.26,1.218,0.372
		c0.495,0.113,1.025,0.236,1.589,0.372c0.563,0.135,1.127,0.294,1.691,0.474c0.563,0.181,1.093,0.405,1.59,0.676
		c0.271,0.361,0.529,0.79,0.777,1.285c0.247,0.497,0.372,1.038,0.372,1.624c0,0.496-0.079,0.856-0.236,1.082
		c-0.159,0.226-0.396,0.451-0.71,0.676c-0.271,0.181-0.723,0.271-1.354,0.271l-2.164,0.203c-0.768,0.091-1.454,0.136-2.063,0.136
		c-0.608,0-1.115,0-1.521,0c-0.361,0-0.756-0.057-1.184-0.169c-0.43-0.112-0.891-0.17-1.387-0.17c-1.263,0-2.458,0.17-3.585,0.508
		c-1.128,0.338-2.277,0.507-3.449,0.507l-3.044-1.015l-4.329,1.015h-1.149l-0.947-0.676c-0.091,0-0.338-0.034-0.744-0.102
		s-0.992-0.146-1.759-0.237c-0.181,0-0.361-0.09-0.541-0.271c-0.136-0.044-0.35-0.111-0.643-0.202
		c-0.294-0.09-0.756-0.293-1.387-0.609c-0.361-0.495-0.541-0.969-0.541-1.42v-0.203V103.131z"/>
	<path d="M691.11,103.131c-1.218,0.361-2.413,0.767-3.585,1.217c-1.173,0.452-2.346,0.88-3.518,1.285
		c-1.173,0.406-2.367,0.756-3.585,1.049c-1.217,0.294-2.458,0.439-3.72,0.439h-0.812c-0.812,0-1.771-0.157-2.875-0.474
		c-1.105-0.314-2.131-0.744-3.077-1.285c-3.518-0.495-6.494-1.623-8.929-3.382c-2.436-1.759-4.532-3.855-6.29-6.29
		c-0.406-0.631-0.711-1.342-0.914-2.131c-0.202-0.788-0.417-1.566-0.643-2.334l-2.638-5.005c0-0.09-0.023-0.247-0.067-0.474
		c-0.046-0.225-0.102-0.619-0.169-1.184c-0.067-0.563-0.125-1.375-0.169-2.435c-0.046-1.06-0.068-2.469-0.068-4.228
		c0.406-0.496,0.665-0.958,0.778-1.387c0.112-0.428,0.169-0.913,0.169-1.454l-0.135-2.57L651,71.476l0.812-2.165
		c0.136-0.45,0.247-1.036,0.339-1.758c0.09-0.722,0.169-1.465,0.236-2.232c0.067-0.767,0.157-1.499,0.271-2.198
		c0.112-0.699,0.281-1.273,0.507-1.725c0.226-0.541,0.53-0.88,0.914-1.015c0.382-0.136,0.8-0.383,1.251-0.744l1.759-2.097
		c1.307-1.895,2.604-3.427,3.889-4.6c1.285-1.172,2.66-2.131,4.126-2.875c1.465-0.744,3.066-1.353,4.803-1.826
		c1.735-0.474,3.687-0.957,5.851-1.454c1.308-0.36,2.627-0.732,3.957-1.116c1.33-0.383,2.672-0.575,4.024-0.575
		c0.586,0,1.116,0.159,1.59,0.474c0.474,0.316,0.913,0.474,1.319,0.474c0.36,0,0.901-0.056,1.623-0.169
		c0.721-0.112,1.465-0.271,2.232-0.474c0.766-0.203,1.454-0.439,2.063-0.71s0.98-0.563,1.116-0.88
		c0.721-2.344,1.251-4.802,1.59-7.372c0.338-2.57,0.507-5.096,0.507-7.576c0-0.631-0.057-1.363-0.169-2.198
		c-0.113-0.834-0.169-1.657-0.169-2.469c0-0.495,0.056-0.957,0.169-1.387c0.112-0.428,0.169-0.913,0.169-1.454
		c0-0.677-0.146-1.228-0.439-1.657c-0.294-0.428-0.666-0.812-1.116-1.149c-0.451-0.339-0.971-0.677-1.556-1.015
		c-0.587-0.339-1.15-0.732-1.691-1.184c-0.315-0.226-0.586-0.45-0.812-0.677c-0.226-0.226-0.463-0.45-0.71-0.677
		c-0.248-0.225-0.541-0.473-0.879-0.744c-0.339-0.271-0.778-0.585-1.319-0.946c-0.181-0.315-0.384-0.643-0.608-0.98
		c-0.227-0.339-0.339-0.688-0.339-1.049c0-0.406,0.136-0.788,0.406-1.15c0.271-0.36,0.563-0.631,0.879-0.812
		c0.677-0.45,1.488-0.845,2.436-1.184c0.946-0.338,1.904-0.643,2.874-0.913s1.871-0.495,2.706-0.676
		c0.834-0.18,1.477-0.339,1.928-0.474h7.846c0.767,0,1.465,0.181,2.097,0.541c0.632,0.361,1.185,0.812,1.657,1.353
		c0.474,0.541,0.846,1.15,1.116,1.826c0.271,0.677,0.406,1.331,0.406,1.962c0,1.984-0.215,3.845-0.643,5.58
		c-0.43,1.736-0.643,3.461-0.643,5.175v6.087l-1.759,6.223c0,1.038,0.136,2.029,0.406,2.977s0.405,1.826,0.405,2.638
		c0,0.947-0.192,1.815-0.575,2.604s-0.574,1.635-0.574,2.536l-0.474,5.749l0.812,4.668l-0.812,7.169l0.812,12.987l-1.421,9.131
		v5.006c0,1.218,0.079,2.469,0.237,3.754c0.157,1.285,0.474,2.435,0.947,3.449c0.473,1.015,1.138,1.85,1.995,2.503
		c0.855,0.654,1.983,0.98,3.382,0.98c0.947,0,1.837-0.067,2.672-0.202c0.834-0.136,1.544-0.203,2.131-0.203
		c0.721,0,1.194,0.26,1.42,0.777c0.226,0.52,0.338,1.116,0.338,1.793c0,0.992-0.214,1.781-0.643,2.367
		c-0.429,0.587-0.992,1.038-1.69,1.353c-0.7,0.316-1.512,0.518-2.436,0.609c-0.925,0.09-1.883,0.135-2.874,0.135l-4.059-0.338
		l-3.991,0.608c-0.632,0-1.263,0.169-1.894,0.508c-0.632,0.338-1.24,0.507-1.826,0.507c-2.029,0-3.563-0.519-4.6-1.556
		c-1.038-1.037-1.85-2.435-2.435-4.193H691.11z M662.77,74.046c0,2.705,0.203,5.231,0.608,7.575c0.406,2.346,1.082,4.498,2.029,6.46
		c0.947,1.961,2.187,3.697,3.72,5.208c1.533,1.512,3.427,2.763,5.683,3.754c1.353,0.677,2.705,1.376,4.058,2.097
		c1.354,0.722,2.863,1.082,4.532,1.082c0.36,0,1.082-0.067,2.164-0.202c1.083-0.136,2.198-0.349,3.349-0.643
		c1.149-0.293,2.198-0.665,3.146-1.116c0.946-0.45,1.487-0.991,1.623-1.623c0.09-0.226,0.135-0.406,0.135-0.542
		c0-0.135,0-0.314,0-0.541c0-0.225-0.022-0.394-0.067-0.507c-0.045-0.112-0.067-0.259-0.067-0.439c0-0.45,0.112-0.947,0.338-1.488
		c0.09-0.09,0.259-0.281,0.508-0.575c0.247-0.293,0.495-0.631,0.744-1.015c0.247-0.383,0.473-0.788,0.676-1.218
		c0.203-0.428,0.305-0.822,0.305-1.184c0-0.946-0.136-1.916-0.406-2.908c-0.271-0.991-0.405-2.052-0.405-3.179l-0.136-2.368
		c0-0.405,0.045-0.821,0.136-1.251c0.09-0.428,0.247-0.777,0.474-1.048V63.833l-0.474-1.285l-1.083-5.005
		c-0.091-0.406-0.451-0.958-1.082-1.657c-0.632-0.699-1.364-1.409-2.198-2.131c-0.835-0.721-1.669-1.363-2.502-1.928
		c-0.835-0.563-1.478-0.89-1.928-0.98c-0.406,0.091-0.802,0.135-1.185,0.135s-0.733,0-1.048,0h-6.899
		c-1.533,0-2.954,0.406-4.261,1.218c-1.309,0.812-2.515,1.883-3.619,3.213c-1.105,1.33-2.086,2.83-2.942,4.498
		c-0.857,1.669-1.567,3.359-2.131,5.073c-0.564,1.714-1.004,3.371-1.318,4.971C662.927,71.555,662.77,72.919,662.77,74.046z"/>
	<path d="M725.133,95.353c0-0.542,0.045-1.342,0.136-2.401c0.09-1.06,0.259-2.107,0.507-3.146c0.247-1.037,0.598-1.938,1.049-2.706
		c0.45-0.766,1.059-1.149,1.826-1.149c0.135,0,0.247,0.248,0.338,0.744c0.09,0.497,0.191,1.071,0.305,1.725
		c0.111,0.654,0.259,1.274,0.439,1.86c0.18,0.586,0.406,0.946,0.677,1.082c0.585,0.271,0.969,0.474,1.149,0.608
		c0.18,0.136,0.338,0.52,0.474,1.15l2.232,3.246c0.225,0.542,0.631,0.925,1.217,1.15c0.586,0.227,1.037,0.541,1.354,0.947
		c0.495,0.722,1.193,1.251,2.097,1.589c0.901,0.339,1.916,0.508,3.044,0.508l1.961-0.339c0.045-0.044,0.259-0.078,0.643-0.101
		c0.383-0.022,0.789-0.057,1.218-0.102c0.428-0.045,0.834-0.078,1.218-0.102c0.382-0.022,0.619-0.034,0.71-0.034
		c0.225-0.09,0.541-0.191,0.947-0.305c0.405-0.111,0.812-0.236,1.217-0.372c0.406-0.135,0.767-0.271,1.082-0.405
		c0.315-0.136,0.519-0.247,0.609-0.338c0.044-0.045,0.247-0.237,0.608-0.575c0.36-0.338,0.767-0.732,1.218-1.184
		c0.45-0.45,0.913-0.913,1.387-1.387s0.846-0.868,1.116-1.184c0.36-0.36,0.585-0.643,0.676-0.846c0.09-0.203,0.136-0.529,0.136-0.98
		V91.7c0-1.759-0.316-3.223-0.947-4.396c-0.632-1.172-1.601-2.321-2.908-3.449c-1.082-0.991-2.188-1.77-3.314-2.334
		c-1.128-0.563-2.289-1.003-3.483-1.318c-1.195-0.315-2.446-0.575-3.754-0.778c-1.309-0.203-2.661-0.439-4.059-0.71
		c-0.497-0.045-0.937-0.203-1.319-0.474s-0.743-0.575-1.082-0.913c-0.338-0.338-0.666-0.687-0.98-1.049
		c-0.316-0.36-0.632-0.676-0.947-0.946l-4.126-2.503c-0.946-0.677-1.657-1.477-2.131-2.401c-0.473-0.924-0.834-1.904-1.082-2.942
		c-0.248-1.036-0.439-2.097-0.574-3.179c-0.136-1.082-0.316-2.142-0.542-3.179l-0.946-2.165c0-1.442,0.203-2.683,0.608-3.72
		c0.406-1.037,0.901-2.074,1.488-3.111c0.767-0.18,1.353-0.586,1.759-1.218c0.405-0.631,0.879-1.15,1.42-1.556
		c0.045-0.136,0.203-0.327,0.474-0.575c0.271-0.247,0.541-0.518,0.812-0.812c0.271-0.293,0.529-0.575,0.778-0.846
		c0.247-0.271,0.372-0.474,0.372-0.608c0.225-0.09,0.495-0.293,0.812-0.609c0.314-0.314,0.474-0.585,0.474-0.812
		c0.135,0,0.36-0.067,0.676-0.202c0.315-0.136,0.653-0.293,1.015-0.474c0.36-0.18,0.711-0.349,1.049-0.508
		c0.338-0.157,0.597-0.259,0.777-0.304c0.09,0,0.281-0.045,0.575-0.136c0.293-0.09,0.508-0.157,0.643-0.203
		c0.045,0,0.214-0.102,0.508-0.304c0.292-0.203,0.507-0.305,0.643-0.305c0.495,0,0.98,0.102,1.454,0.305
		c0.474,0.202,0.957,0.304,1.454,0.304l4.329-0.608l5.411,0.812l3.855,1.623c0.495,0,1.059-0.191,1.69-0.574
		c0.631-0.383,1.194-0.575,1.691-0.575c0.135,0,0.247,0.045,0.338,0.135c0.136,0,0.259,0.034,0.372,0.102
		c0.112,0.068,0.236,0.147,0.372,0.237c0,0.091,0.044,0.271,0.136,0.541c0.044,0.135,0.111,0.271,0.202,0.405
		c0,0.723-0.181,1.319-0.541,1.793c-0.361,0.474-0.541,1.004-0.541,1.589l-0.135,1.759c0,0.361-0.012,0.711-0.034,1.049
		c-0.023,0.338-0.146,0.643-0.372,0.913c-0.136,0.632-0.192,1.466-0.169,2.503c0.022,1.037-0.034,2.04-0.169,3.01
		c-0.136,0.97-0.396,1.815-0.778,2.536c-0.384,0.722-1.004,1.082-1.86,1.082l-0.676-1.149c-0.136-0.09-0.227-0.305-0.271-0.643
		c-0.046-0.338-0.181-0.552-0.406-0.643c-0.226-0.18-0.474-0.496-0.744-0.947c-0.271-0.45-0.53-0.957-0.777-1.521
		c-0.249-0.563-0.474-1.116-0.677-1.657s-0.372-0.969-0.507-1.285l-0.947-0.812c-0.902-0.677-1.702-1.172-2.401-1.488
		c-0.699-0.315-1.454-0.788-2.266-1.421c-0.181-0.179-0.485-0.28-0.913-0.304c-0.43-0.022-1.026-0.034-1.793-0.034
		c-0.722,0-1.702,0.147-2.942,0.439c-1.24,0.294-2.458,0.711-3.652,1.252c-1.195,0.541-2.231,1.184-3.111,1.928
		c-0.879,0.744-1.318,1.567-1.318,2.469l0.338,1.42c0,0.227-0.102,0.633-0.305,1.218c-0.203,0.587-0.372,1.038-0.507,1.353
		c0,0.497,0.067,0.857,0.202,1.083c0.136,0.226,0.327,0.405,0.575,0.541c0.247,0.135,0.519,0.271,0.812,0.405
		c0.293,0.136,0.62,0.384,0.981,0.744c0.225,0.181,0.372,0.418,0.439,0.71c0.067,0.294,0.124,0.599,0.169,0.913
		c0.045,0.316,0.102,0.633,0.169,0.947c0.067,0.316,0.237,0.587,0.508,0.812c0.495,0.406,1.228,0.7,2.198,0.88
		c0.969,0.181,1.814,0.315,2.536,0.405h3.721c0.901,0.091,1.746,0.43,2.536,1.015c0.788,0.587,1.387,0.925,1.792,1.015h3.991
		l2.097,1.421c0.991,0.632,1.814,1.251,2.469,1.859c0.653,0.609,1.218,1.252,1.691,1.928c0.473,0.677,0.89,1.433,1.251,2.267
		c0.36,0.835,0.744,1.815,1.149,2.942c0.18,0.361,0.327,0.643,0.44,0.845c0.111,0.203,0.213,0.396,0.304,0.575
		c0.09,0.181,0.158,0.294,0.203,0.338l-0.608,2.098c0,0.045,0.044,0.214,0.135,0.507c0.09,0.294,0.203,0.608,0.339,0.947
		c0.135,0.338,0.247,0.676,0.338,1.015c0.09,0.338,0.135,0.574,0.135,0.71v2.3c0,0.722-0.067,1.556-0.202,2.503
		c-0.136,0.946-0.339,1.905-0.609,2.874c-0.271,0.971-0.608,1.905-1.015,2.808c-0.405,0.902-0.856,1.646-1.353,2.231
		c-0.045,0.091-0.248,0.316-0.608,0.677c-0.361,0.361-0.756,0.777-1.184,1.251c-0.43,0.474-0.857,0.925-1.285,1.354
		c-0.43,0.429-0.756,0.733-0.981,0.913c-0.045,0.045-0.135,0.112-0.271,0.202c-0.135,0.091-0.294,0.181-0.474,0.271
		c-0.181,0.136-0.405,0.249-0.676,0.339l-0.812,1.082l-1.759,0.338c-0.046,0-0.181,0.012-0.406,0.034
		c-0.226,0.023-0.463,0.057-0.71,0.102c-0.248,0.045-0.485,0.091-0.71,0.135c-0.227,0.046-0.361,0.068-0.406,0.068
		c-0.405,0.135-0.937,0.405-1.589,0.812c-0.654,0.405-1.207,0.608-1.657,0.608c-1.083-0.045-1.86-0.091-2.334-0.135
		c-0.474-0.046-1.004-0.113-1.59-0.203h-2.3c-0.135-0.045-0.338-0.102-0.608-0.169c-0.271-0.068-0.564-0.136-0.879-0.203
		c-0.316-0.067-0.609-0.136-0.88-0.203s-0.429-0.102-0.474-0.102c-0.045-0.044-0.192-0.123-0.439-0.236
		c-0.248-0.112-0.519-0.237-0.812-0.372c-0.294-0.136-0.553-0.247-0.778-0.339c-0.226-0.09-0.361-0.135-0.405-0.135
		c-0.181-0.09-0.519-0.169-1.015-0.237c-0.497-0.067-0.789-0.101-0.879-0.101l-1.15-0.609c-0.541-0.18-1.06-0.36-1.556-0.541
		c-0.497-0.18-1.004-0.416-1.521-0.71c-0.52-0.293-1.072-0.677-1.657-1.15c-0.587-0.473-1.241-1.07-1.962-1.792
		c-0.045-0.18-0.091-0.406-0.135-0.677c-0.046-0.271-0.068-0.518-0.068-0.744c0-0.721,0.078-1.408,0.237-2.063
		C725.054,96.221,725.133,95.714,725.133,95.353z"/>
</g>
</svg>
